<svg xmlns="http://www.w3.org/2000/svg" xmlns:xlink="http://www.w3.org/1999/xlink" width="100" zoomAndPan="magnify" viewBox="0 0 75 74.999997" height="100" preserveAspectRatio="xMidYMid meet" version="1.0"><defs><clipPath id="449ff86b54"><path d="M 61 44 L 63.972656 44 L 63.972656 47 L 61 47 Z M 61 44 " clip-rule="nonzero"/></clipPath><clipPath id="195866f546"><path d="M 10.722656 42 L 14 42 L 14 45 L 10.722656 45 Z M 10.722656 42 " clip-rule="nonzero"/></clipPath><clipPath id="fecb5956bf"><path d="M 60 34 L 63.972656 34 L 63.972656 37 L 60 37 Z M 60 34 " clip-rule="nonzero"/></clipPath><clipPath id="84c735c70f"><path d="M 61 36 L 63.972656 36 L 63.972656 40 L 61 40 Z M 61 36 " clip-rule="nonzero"/></clipPath><clipPath id="df81caea54"><path d="M 24 35 L 51.761719 35 L 51.761719 53 L 24 53 Z M 24 35 " clip-rule="nonzero"/></clipPath><clipPath id="ec1e664778"><path d="M 29 45 L 50 45 L 50 58.839844 L 29 58.839844 Z M 29 45 " clip-rule="nonzero"/></clipPath><clipPath id="62251e60b0"><path d="M 23.261719 22.839844 L 46 22.839844 L 46 35 L 23.261719 35 Z M 23.261719 22.839844 " clip-rule="nonzero"/></clipPath><clipPath id="e57824258c"><path d="M 23.261719 28 L 51.761719 28 L 51.761719 53 L 23.261719 53 Z M 23.261719 28 " clip-rule="nonzero"/></clipPath><clipPath id="aa7b00edb0"><path d="M 28 45 L 50 45 L 50 58.839844 L 28 58.839844 Z M 28 45 " clip-rule="nonzero"/></clipPath></defs><path fill="#010101" d="M 56.6875 45.035156 C 56.644531 45.210938 56.589844 45.386719 56.507812 45.546875 C 56.371094 45.777344 56.207031 45.992188 56.179688 46.261719 C 56.070312 47 56.835938 47.65625 57.550781 47.449219 C 58.089844 47.300781 58.425781 46.8125 58.984375 46.6875 C 59.503906 46.585938 60.210938 46.519531 60.332031 45.875 C 60.496094 45.195312 59.882812 44.878906 59.472656 44.554688 C 59.03125 44.199219 58.9375 43.609375 58.519531 43.242188 C 58.011719 42.777344 57.097656 42.960938 56.816406 43.589844 C 56.585938 44.042969 56.847656 44.566406 56.6875 45.035156 Z M 56.6875 45.035156 " fill-opacity="1" fill-rule="nonzero"/><path fill="#010101" d="M 60.011719 43.933594 C 59.480469 43.800781 59.242188 43.035156 59.539062 42.597656 C 59.839844 42.210938 60.429688 42.207031 60.875 42.257812 C 61.285156 42.296875 61.726562 42.605469 61.65625 43.070312 C 61.46875 43.660156 60.558594 44.066406 60.011719 43.933594 Z M 60.011719 43.933594 " fill-opacity="1" fill-rule="nonzero"/><path fill="#010101" d="M 59.152344 47.460938 C 58.628906 47.316406 58.046875 47.847656 58.089844 48.386719 C 58.148438 48.957031 59.15625 49.539062 59.695312 49.417969 C 60.03125 49.351562 60.277344 48.988281 60.15625 48.648438 C 60.023438 48.160156 59.652344 47.605469 59.152344 47.460938 Z M 59.152344 47.460938 " fill-opacity="1" fill-rule="nonzero"/><g clip-path="url(#449ff86b54)"><path fill="#010101" d="M 61.765625 44.046875 C 62.390625 43.949219 63.167969 44.234375 63.410156 44.875 C 63.75 45.910156 62.253906 46.308594 61.570312 45.902344 C 60.855469 45.453125 60.808594 44.21875 61.765625 44.046875 Z M 61.765625 44.046875 " fill-opacity="1" fill-rule="nonzero"/></g><path fill="#010101" d="M 60.757812 48.269531 C 61.269531 48.640625 62.09375 48.734375 62.601562 48.273438 C 63.359375 47.5 62.222656 46.476562 61.417969 46.523438 C 60.578125 46.601562 59.984375 47.6875 60.757812 48.269531 Z M 60.757812 48.269531 " fill-opacity="1" fill-rule="nonzero"/><path fill="#010101" d="M 54.125 54.894531 C 53.664062 55.015625 53.109375 55.027344 52.734375 54.65625 C 52.105469 54.074219 52.226562 53.101562 52.9375 52.679688 C 53.402344 52.386719 53.613281 51.890625 53.78125 51.386719 C 53.980469 50.90625 54.53125 50.628906 55.066406 50.710938 C 55.59375 50.785156 56.023438 51.230469 56.101562 51.75 C 56.183594 52.117188 56.132812 52.53125 56.316406 52.859375 C 56.410156 53.035156 56.523438 53.203125 56.613281 53.386719 C 56.980469 54.011719 56.59375 54.890625 55.851562 54.953125 C 55.515625 54.988281 55.199219 54.886719 54.886719 54.824219 C 54.640625 54.78125 54.390625 54.835938 54.125 54.894531 Z M 52.804688 53.339844 C 52.488281 53.808594 52.851562 54.539062 53.417969 54.585938 C 53.929688 54.636719 54.4375 54.335938 54.964844 54.441406 C 55.339844 54.503906 55.738281 54.65625 56.058594 54.488281 C 56.496094 54.199219 56.402344 53.765625 56.105469 53.277344 C 55.875 52.941406 55.785156 52.519531 55.769531 52.152344 C 55.75 51.933594 55.734375 51.730469 55.644531 51.539062 C 55.472656 51.164062 54.996094 50.960938 54.605469 51.109375 C 53.84375 51.355469 54.234375 52.261719 53.164062 52.980469 C 52.988281 53.101562 52.878906 53.210938 52.804688 53.339844 Z M 52.804688 53.339844 " fill-opacity="1" fill-rule="nonzero"/><path fill="#010101" d="M 56.390625 51.941406 C 56.484375 50.917969 57.382812 50.816406 58.175781 51.234375 C 58.933594 51.5625 59.199219 52.527344 58.359375 52.902344 C 57.585938 53.238281 56.300781 53.023438 56.390625 51.941406 Z M 58.453125 52.023438 C 58.269531 51.628906 57.433594 51.25 57.039062 51.453125 C 56.726562 51.613281 56.671875 52.261719 56.964844 52.460938 C 57.316406 52.714844 57.875 52.667969 58.246094 52.519531 C 58.460938 52.449219 58.539062 52.210938 58.453125 52.023438 Z M 58.453125 52.023438 " fill-opacity="1" fill-rule="nonzero"/><path fill="#010101" d="M 55.429688 56.777344 C 55.386719 57.238281 54.953125 57.546875 54.503906 57.46875 C 54.066406 57.398438 53.675781 56.933594 53.46875 56.535156 C 53.105469 55.910156 53.390625 55.304688 54.019531 55.089844 C 55.066406 54.742188 55.550781 55.941406 55.429688 56.777344 Z M 53.707031 55.839844 C 53.601562 56.253906 54.191406 56.996094 54.601562 57.070312 C 55.355469 57.179688 55.03125 55.78125 54.671875 55.527344 C 54.398438 55.28125 53.820312 55.488281 53.707031 55.839844 Z M 53.707031 55.839844 " fill-opacity="1" fill-rule="nonzero"/><path fill="#010101" d="M 58.386719 53.175781 C 59.308594 53.382812 60.132812 54.570312 59.308594 55.382812 C 58.753906 55.855469 57.738281 55.613281 57.300781 55.046875 C 56.742188 54.261719 57.292969 52.921875 58.386719 53.175781 Z M 59.140625 54.304688 C 58.941406 53.875 58.28125 53.351562 57.765625 53.648438 C 57.433594 53.871094 57.394531 54.457031 57.621094 54.765625 C 57.789062 54.96875 58.058594 55.109375 58.324219 55.171875 C 59.070312 55.339844 59.417969 54.894531 59.140625 54.304688 Z M 59.140625 54.304688 " fill-opacity="1" fill-rule="nonzero"/><path fill="#010101" d="M 58.089844 57.015625 C 57.878906 57.539062 57.316406 57.65625 56.894531 57.59375 C 56.476562 57.535156 56.054688 57.253906 55.796875 56.902344 C 55.070312 55.921875 56.191406 54.875 57.191406 55.195312 C 57.855469 55.445312 58.390625 56.351562 58.089844 57.015625 Z M 55.988281 56.050781 C 55.851562 56.625 56.546875 57.105469 57.015625 57.175781 C 57.691406 57.28125 57.960938 56.765625 57.605469 56.136719 C 57.46875 55.902344 57.257812 55.683594 57.015625 55.585938 C 56.667969 55.453125 56.105469 55.648438 55.988281 56.050781 Z M 55.988281 56.050781 " fill-opacity="1" fill-rule="nonzero"/><path fill="#010101" d="M 47.863281 57.40625 C 47.496094 57.679688 47.003906 57.644531 46.636719 57.914062 C 46.039062 58.332031 46.113281 59.375 46.769531 59.726562 C 47.25 59.988281 47.847656 59.898438 48.316406 60.195312 C 48.769531 60.484375 49.277344 60.945312 49.847656 60.574219 C 50.429688 60.207031 50.246094 59.578125 50.175781 59.03125 C 50.105469 58.464844 50.464844 57.988281 50.425781 57.429688 C 50.386719 56.671875 49.511719 56.183594 48.855469 56.519531 C 48.667969 56.613281 48.53125 56.757812 48.40625 56.925781 C 48.253906 57.113281 48.066406 57.273438 47.863281 57.40625 Z M 47.863281 57.40625 " fill-opacity="1" fill-rule="nonzero"/><path fill="#010101" d="M 50.992188 58.976562 C 50.71875 58.511719 51.074219 57.792969 51.609375 57.699219 C 52.179688 57.601562 53 58.421875 53.019531 58.980469 C 53.015625 60.074219 51.351562 59.601562 50.992188 58.976562 Z M 50.992188 58.976562 " fill-opacity="1" fill-rule="nonzero"/><path fill="#010101" d="M 47.890625 60.855469 C 47.625 60.386719 46.820312 60.359375 46.484375 60.761719 C 46.195312 61.15625 46.351562 61.726562 46.515625 62.144531 C 46.660156 62.53125 47.0625 62.871094 47.492188 62.675781 C 48.007812 62.375 48.164062 61.347656 47.890625 60.855469 Z M 47.890625 60.855469 " fill-opacity="1" fill-rule="nonzero"/><path fill="#010101" d="M 52.15625 60.296875 C 52.523438 60.566406 52.800781 61.023438 52.828125 61.484375 C 52.847656 61.835938 52.722656 62.304688 52.292969 62.453125 C 51.636719 62.675781 50.863281 62.039062 50.703125 61.46875 C 50.511719 60.648438 51.367188 59.730469 52.15625 60.296875 Z M 52.15625 60.296875 " fill-opacity="1" fill-rule="nonzero"/><path fill="#010101" d="M 48.453125 62.566406 C 48.558594 63.199219 49.066406 63.832031 49.753906 63.875 C 50.363281 63.925781 50.691406 63.214844 50.582031 62.679688 C 50.53125 62.328125 50.363281 61.992188 50.15625 61.804688 C 49.53125 61.253906 48.304688 61.613281 48.453125 62.566406 Z M 48.453125 62.566406 " fill-opacity="1" fill-rule="nonzero"/><path fill="#010101" d="M 39.082031 62.5625 C 38.664062 62.324219 38.269531 61.933594 38.265625 61.410156 C 38.238281 60.558594 38.988281 59.957031 39.808594 60.15625 C 40.390625 60.28125 40.804688 60.078125 41.320312 59.84375 C 41.796875 59.628906 42.398438 59.855469 42.703125 60.273438 C 42.933594 60.589844 43.011719 61.03125 42.878906 61.402344 C 42.667969 61.976562 42.085938 62.289062 42.007812 62.910156 C 41.949219 63.136719 41.882812 63.382812 41.742188 63.59375 C 41.476562 64.054688 40.695312 64.214844 40.261719 63.828125 C 39.75 63.378906 39.757812 62.921875 39.082031 62.5625 Z M 39.25 60.527344 C 38.695312 60.640625 38.433594 61.410156 38.800781 61.847656 C 39.128906 62.242188 39.695312 62.394531 39.996094 62.839844 C 40.214844 63.148438 40.390625 63.53125 40.734375 63.644531 C 41.25 63.765625 41.492188 63.371094 41.621094 62.820312 C 41.699219 62.421875 41.933594 62.066406 42.179688 61.789062 C 42.324219 61.617188 42.453125 61.457031 42.527344 61.265625 C 42.742188 60.738281 42.253906 60.085938 41.695312 60.140625 C 41.324219 60.191406 40.90625 60.507812 40.503906 60.546875 C 40.109375 60.636719 39.617188 60.449219 39.25 60.527344 Z M 39.25 60.527344 " fill-opacity="1" fill-rule="nonzero"/><path fill="#010101" d="M 42.769531 62.082031 C 43.285156 61.625 43.953125 61.726562 44.296875 62.335938 C 44.535156 62.71875 44.726562 63.292969 44.5625 63.710938 C 44.179688 64.523438 43.339844 64.242188 42.832031 63.699219 C 42.371094 63.25 42.207031 62.539062 42.769531 62.082031 Z M 44.167969 63.589844 C 44.324219 63.191406 43.988281 62.316406 43.574219 62.1875 C 43.222656 62.089844 42.695312 62.539062 42.820312 62.910156 C 42.886719 63.34375 43.878906 64.269531 44.167969 63.589844 Z M 44.167969 63.589844 " fill-opacity="1" fill-rule="nonzero"/><path fill="#010101" d="M 38.671875 64.820312 C 38.324219 65.105469 37.785156 65.023438 37.527344 64.652344 C 37.269531 64.292969 37.320312 63.6875 37.457031 63.257812 C 37.644531 62.554688 38.269531 62.335938 38.867188 62.628906 C 39.855469 63.121094 39.34375 64.3125 38.671875 64.820312 Z M 38.117188 62.933594 C 37.746094 63.15625 37.640625 64.097656 37.878906 64.441406 C 38.332031 65.046875 39.089844 63.835938 39.019531 63.398438 C 39.007812 63.03125 38.417969 62.765625 38.117188 62.933594 Z M 38.117188 62.933594 " fill-opacity="1" fill-rule="nonzero"/><path fill="#010101" d="M 43.308594 64.359375 C 43.5625 64.773438 43.636719 65.34375 43.472656 65.785156 C 43.316406 66.21875 42.921875 66.632812 42.398438 66.570312 C 41.671875 66.519531 41.125 65.628906 41.21875 64.921875 C 41.367188 63.972656 42.726562 63.410156 43.308594 64.359375 Z M 43.046875 65.695312 C 43.175781 65.355469 43.125 64.890625 42.933594 64.558594 C 42.589844 63.945312 41.734375 64.355469 41.644531 64.949219 C 41.558594 65.777344 42.617188 66.828125 43.046875 65.695312 Z M 43.046875 65.695312 " fill-opacity="1" fill-rule="nonzero"/><path fill="#010101" d="M 40.382812 66.867188 C 39.558594 67.191406 38.839844 66.328125 38.824219 65.550781 C 38.707031 64.082031 40.394531 63.8125 41.035156 64.945312 C 41.328125 65.597656 41.058594 66.605469 40.382812 66.867188 Z M 39.582031 64.695312 C 39.078125 65.007812 39.230469 65.839844 39.511719 66.21875 C 39.613281 66.363281 39.941406 66.660156 40.195312 66.527344 C 40.652344 66.339844 40.832031 65.546875 40.632812 65.09375 C 40.484375 64.757812 39.945312 64.503906 39.582031 64.695312 Z M 39.582031 64.695312 " fill-opacity="1" fill-rule="nonzero"/><path fill="#010101" d="M 32.878906 59.910156 C 32.703125 59.871094 32.527344 59.8125 32.367188 59.730469 C 32.136719 59.59375 31.921875 59.433594 31.652344 59.402344 C 30.914062 59.292969 30.257812 60.058594 30.464844 60.777344 C 30.613281 61.3125 31.101562 61.652344 31.226562 62.207031 C 31.328125 62.726562 31.394531 63.433594 32.039062 63.558594 C 32.71875 63.722656 33.035156 63.109375 33.359375 62.695312 C 33.714844 62.253906 34.304688 62.160156 34.671875 61.742188 C 35.136719 61.234375 34.953125 60.320312 34.324219 60.039062 C 33.871094 59.808594 33.347656 60.070312 32.878906 59.910156 Z M 32.878906 59.910156 " fill-opacity="1" fill-rule="nonzero"/><path fill="#010101" d="M 33.980469 63.234375 C 34.113281 62.707031 34.878906 62.46875 35.316406 62.765625 C 35.703125 63.0625 35.707031 63.652344 35.65625 64.097656 C 35.617188 64.507812 35.308594 64.949219 34.84375 64.878906 C 34.253906 64.695312 33.847656 63.785156 33.980469 63.234375 Z M 33.980469 63.234375 " fill-opacity="1" fill-rule="nonzero"/><path fill="#010101" d="M 30.453125 62.375 C 30.597656 61.851562 30.066406 61.269531 29.527344 61.3125 C 28.957031 61.371094 28.375 62.378906 28.496094 62.921875 C 28.5625 63.253906 28.925781 63.503906 29.265625 63.378906 C 29.753906 63.25 30.308594 62.878906 30.453125 62.375 Z M 30.453125 62.375 " fill-opacity="1" fill-rule="nonzero"/><path fill="#010101" d="M 33.867188 64.992188 C 33.964844 65.613281 33.679688 66.390625 33.039062 66.636719 C 32.003906 66.972656 31.605469 65.476562 32.011719 64.792969 C 32.460938 64.082031 33.695312 64.03125 33.867188 64.992188 Z M 33.867188 64.992188 " fill-opacity="1" fill-rule="nonzero"/><path fill="#010101" d="M 29.644531 63.980469 C 29.273438 64.492188 29.179688 65.316406 29.640625 65.824219 C 30.414062 66.582031 31.4375 65.445312 31.390625 64.640625 C 31.3125 63.800781 30.226562 63.207031 29.644531 63.980469 Z M 29.644531 63.980469 " fill-opacity="1" fill-rule="nonzero"/><path fill="#010101" d="M 23.019531 57.351562 C 22.898438 56.886719 22.886719 56.332031 23.257812 55.957031 C 23.839844 55.328125 24.8125 55.449219 25.234375 56.160156 C 25.527344 56.625 26.023438 56.839844 26.527344 57.003906 C 27.007812 57.203125 27.285156 57.753906 27.203125 58.289062 C 27.128906 58.816406 26.683594 59.246094 26.164062 59.324219 C 25.796875 59.40625 25.382812 59.355469 25.054688 59.539062 C 24.878906 59.632812 24.710938 59.746094 24.527344 59.835938 C 23.902344 60.203125 23.023438 59.820312 22.960938 59.074219 C 22.925781 58.738281 23.027344 58.421875 23.089844 58.109375 C 23.132812 57.863281 23.078125 57.613281 23.019531 57.351562 Z M 24.574219 56.027344 C 24.105469 55.714844 23.375 56.074219 23.328125 56.644531 C 23.277344 57.15625 23.578125 57.664062 23.472656 58.1875 C 23.410156 58.5625 23.257812 58.960938 23.425781 59.28125 C 23.714844 59.722656 24.148438 59.628906 24.636719 59.328125 C 24.972656 59.101562 25.394531 59.007812 25.761719 58.992188 C 25.980469 58.972656 26.183594 58.957031 26.375 58.867188 C 26.75 58.695312 26.953125 58.21875 26.804688 57.828125 C 26.558594 57.066406 25.652344 57.457031 24.933594 56.390625 C 24.8125 56.210938 24.703125 56.105469 24.574219 56.027344 Z M 24.574219 56.027344 " fill-opacity="1" fill-rule="nonzero"/><path fill="#010101" d="M 25.972656 59.613281 C 26.996094 59.707031 27.097656 60.605469 26.679688 61.398438 C 26.351562 62.15625 25.386719 62.421875 25.011719 61.582031 C 24.675781 60.808594 24.890625 59.527344 25.972656 59.613281 Z M 25.890625 61.675781 C 26.285156 61.492188 26.664062 60.660156 26.460938 60.261719 C 26.300781 59.953125 25.652344 59.894531 25.453125 60.1875 C 25.199219 60.539062 25.246094 61.097656 25.394531 61.472656 C 25.464844 61.683594 25.703125 61.761719 25.890625 61.675781 Z M 25.890625 61.675781 " fill-opacity="1" fill-rule="nonzero"/><path fill="#010101" d="M 21.136719 58.652344 C 20.675781 58.609375 20.367188 58.175781 20.445312 57.726562 C 20.515625 57.289062 20.980469 56.898438 21.378906 56.691406 C 22.003906 56.328125 22.609375 56.613281 22.824219 57.242188 C 23.171875 58.289062 21.972656 58.773438 21.136719 58.652344 Z M 22.074219 56.929688 C 21.660156 56.824219 20.917969 57.414062 20.84375 57.828125 C 20.734375 58.578125 22.132812 58.253906 22.386719 57.894531 C 22.632812 57.621094 22.425781 57.042969 22.074219 56.929688 Z M 22.074219 56.929688 " fill-opacity="1" fill-rule="nonzero"/><path fill="#010101" d="M 24.738281 61.609375 C 24.53125 62.535156 23.34375 63.355469 22.53125 62.53125 C 22.058594 61.976562 22.300781 60.960938 22.867188 60.523438 C 23.652344 59.96875 24.992188 60.515625 24.738281 61.609375 Z M 23.609375 62.367188 C 24.039062 62.164062 24.558594 61.503906 24.265625 60.988281 C 24.042969 60.65625 23.457031 60.617188 23.148438 60.847656 C 22.488281 61.394531 22.515625 62.851562 23.609375 62.367188 Z M 23.609375 62.367188 " fill-opacity="1" fill-rule="nonzero"/><path fill="#010101" d="M 20.898438 61.3125 C 20.375 61.101562 20.257812 60.539062 20.320312 60.117188 C 20.378906 59.699219 20.660156 59.28125 21.011719 59.023438 C 21.992188 58.292969 23.039062 59.414062 22.71875 60.414062 C 22.46875 61.078125 21.5625 61.613281 20.898438 61.3125 Z M 21.863281 59.214844 C 21.289062 59.074219 20.808594 59.773438 20.738281 60.238281 C 20.632812 60.914062 21.148438 61.183594 21.777344 60.828125 C 22.011719 60.691406 22.230469 60.480469 22.328125 60.238281 C 22.460938 59.890625 22.265625 59.328125 21.863281 59.214844 Z M 21.863281 59.214844 " fill-opacity="1" fill-rule="nonzero"/><path fill="#010101" d="M 20.507812 51.085938 C 20.234375 50.71875 20.269531 50.226562 20 49.859375 C 19.582031 49.261719 18.539062 49.335938 18.1875 49.992188 C 17.925781 50.472656 18.015625 51.070312 17.71875 51.542969 C 17.429688 51.992188 16.96875 52.5 17.339844 53.070312 C 17.707031 53.652344 18.335938 53.46875 18.882812 53.398438 C 19.449219 53.328125 19.925781 53.6875 20.484375 53.652344 C 21.242188 53.613281 21.730469 52.734375 21.394531 52.078125 C 21.300781 51.890625 21.15625 51.753906 20.988281 51.628906 C 20.800781 51.476562 20.640625 51.289062 20.507812 51.085938 Z M 20.507812 51.085938 " fill-opacity="1" fill-rule="nonzero"/><path fill="#010101" d="M 18.9375 54.21875 C 19.402344 53.945312 20.121094 54.296875 20.214844 54.832031 C 20.3125 55.402344 19.492188 56.222656 18.933594 56.246094 C 17.839844 56.238281 18.3125 54.574219 18.9375 54.21875 Z M 18.9375 54.21875 " fill-opacity="1" fill-rule="nonzero"/><path fill="#010101" d="M 17.058594 51.113281 C 17.527344 50.847656 17.554688 50.046875 17.152344 49.707031 C 16.757812 49.417969 16.1875 49.574219 15.769531 49.738281 C 15.382812 49.882812 15.042969 50.285156 15.238281 50.714844 C 15.539062 51.230469 16.566406 51.386719 17.058594 51.113281 Z M 17.058594 51.113281 " fill-opacity="1" fill-rule="nonzero"/><path fill="#010101" d="M 17.617188 55.378906 C 17.347656 55.746094 16.890625 56.023438 16.429688 56.050781 C 16.078125 56.070312 15.609375 55.945312 15.460938 55.515625 C 15.238281 54.859375 15.875 54.085938 16.445312 53.925781 C 17.265625 53.734375 18.183594 54.589844 17.617188 55.378906 Z M 17.617188 55.378906 " fill-opacity="1" fill-rule="nonzero"/><path fill="#010101" d="M 15.347656 51.679688 C 14.714844 51.78125 14.082031 52.292969 14.039062 52.980469 C 13.988281 53.585938 14.699219 53.914062 15.234375 53.804688 C 15.585938 53.753906 15.921875 53.585938 16.109375 53.378906 C 16.660156 52.753906 16.300781 51.527344 15.347656 51.679688 Z M 15.347656 51.679688 " fill-opacity="1" fill-rule="nonzero"/><path fill="#010101" d="M 15.351562 42.304688 C 15.589844 41.890625 15.980469 41.492188 16.503906 41.488281 C 17.351562 41.460938 17.957031 42.210938 17.757812 43.03125 C 17.632812 43.613281 17.835938 44.027344 18.070312 44.542969 C 18.285156 45.019531 18.058594 45.625 17.640625 45.925781 C 17.324219 46.160156 16.882812 46.234375 16.511719 46.101562 C 15.9375 45.890625 15.625 45.308594 15.003906 45.230469 C 14.777344 45.175781 14.53125 45.105469 14.320312 44.964844 C 13.859375 44.699219 13.699219 43.917969 14.085938 43.484375 C 14.535156 42.972656 14.992188 42.984375 15.351562 42.304688 Z M 17.386719 42.472656 C 17.273438 41.917969 16.503906 41.65625 16.066406 42.023438 C 15.671875 42.351562 15.519531 42.917969 15.074219 43.21875 C 14.765625 43.441406 14.382812 43.613281 14.269531 43.957031 C 14.148438 44.472656 14.542969 44.714844 15.09375 44.847656 C 15.492188 44.925781 15.847656 45.15625 16.125 45.40625 C 16.296875 45.546875 16.457031 45.675781 16.648438 45.75 C 17.175781 45.964844 17.828125 45.476562 17.773438 44.917969 C 17.722656 44.546875 17.40625 44.132812 17.367188 43.726562 C 17.277344 43.335938 17.464844 42.839844 17.386719 42.472656 Z M 17.386719 42.472656 " fill-opacity="1" fill-rule="nonzero"/><path fill="#010101" d="M 15.832031 45.992188 C 16.289062 46.507812 16.1875 47.175781 15.578125 47.519531 C 15.195312 47.757812 14.621094 47.949219 14.203125 47.785156 C 13.390625 47.40625 13.671875 46.566406 14.214844 46.054688 C 14.664062 45.59375 15.375 45.429688 15.832031 45.992188 Z M 14.324219 47.390625 C 14.722656 47.546875 15.597656 47.214844 15.726562 46.796875 C 15.824219 46.445312 15.375 45.917969 15.003906 46.042969 C 14.570312 46.109375 13.644531 47.101562 14.324219 47.390625 Z M 14.324219 47.390625 " fill-opacity="1" fill-rule="nonzero"/><path fill="#010101" d="M 13.09375 41.894531 C 12.808594 41.546875 12.890625 41.007812 13.261719 40.75 C 13.621094 40.492188 14.226562 40.546875 14.65625 40.679688 C 15.359375 40.871094 15.578125 41.492188 15.285156 42.089844 C 14.792969 43.078125 13.601562 42.566406 13.09375 41.894531 Z M 14.976562 41.339844 C 14.757812 40.972656 13.816406 40.863281 13.472656 41.101562 C 12.867188 41.554688 14.074219 42.316406 14.515625 42.242188 C 14.882812 42.234375 15.148438 41.640625 14.976562 41.339844 Z M 14.976562 41.339844 " fill-opacity="1" fill-rule="nonzero"/><path fill="#010101" d="M 13.550781 46.53125 C 13.140625 46.785156 12.570312 46.859375 12.128906 46.695312 C 11.695312 46.539062 11.28125 46.148438 11.34375 45.621094 C 11.394531 44.894531 12.285156 44.347656 12.992188 44.441406 C 13.9375 44.589844 14.503906 45.949219 13.550781 46.53125 Z M 12.21875 46.269531 C 12.558594 46.398438 13.023438 46.347656 13.355469 46.15625 C 13.96875 45.816406 13.558594 44.957031 12.964844 44.867188 C 12.136719 44.78125 11.085938 45.839844 12.21875 46.269531 Z M 12.21875 46.269531 " fill-opacity="1" fill-rule="nonzero"/><g clip-path="url(#195866f546)"><path fill="#010101" d="M 11.046875 43.605469 C 10.722656 42.785156 11.585938 42.066406 12.363281 42.050781 C 13.832031 41.929688 14.101562 43.617188 12.96875 44.257812 C 12.316406 44.554688 11.308594 44.285156 11.046875 43.605469 Z M 13.21875 42.804688 C 12.90625 42.300781 12.074219 42.453125 11.695312 42.734375 C 11.550781 42.835938 11.253906 43.164062 11.386719 43.417969 C 11.574219 43.875 12.367188 44.054688 12.820312 43.859375 C 13.15625 43.707031 13.410156 43.167969 13.21875 42.804688 Z M 13.21875 42.804688 " fill-opacity="1" fill-rule="nonzero"/></g><path fill="#010101" d="M 18.003906 36.101562 C 18.042969 35.925781 18.101562 35.75 18.183594 35.589844 C 18.320312 35.363281 18.480469 35.148438 18.511719 34.875 C 18.621094 34.136719 17.855469 33.480469 17.136719 33.6875 C 16.601562 33.835938 16.261719 34.324219 15.707031 34.449219 C 15.1875 34.550781 14.480469 34.617188 14.355469 35.261719 C 14.191406 35.941406 14.804688 36.257812 15.21875 36.585938 C 15.660156 36.941406 15.753906 37.527344 16.171875 37.894531 C 16.679688 38.359375 17.59375 38.179688 17.875 37.546875 C 18.105469 37.09375 17.84375 36.574219 18.003906 36.101562 Z M 18.003906 36.101562 " fill-opacity="1" fill-rule="nonzero"/><path fill="#010101" d="M 14.679688 37.203125 C 15.207031 37.335938 15.445312 38.101562 15.148438 38.542969 C 14.851562 38.925781 14.261719 38.929688 13.816406 38.878906 C 13.40625 38.839844 12.964844 38.53125 13.035156 38.066406 C 13.21875 37.476562 14.128906 37.070312 14.679688 37.203125 Z M 14.679688 37.203125 " fill-opacity="1" fill-rule="nonzero"/><path fill="#010101" d="M 15.539062 33.675781 C 16.0625 33.820312 16.644531 33.289062 16.601562 32.75 C 16.542969 32.179688 15.535156 31.597656 14.992188 31.722656 C 14.660156 31.785156 14.410156 32.148438 14.535156 32.488281 C 14.664062 32.976562 15.035156 33.53125 15.539062 33.675781 Z M 15.539062 33.675781 " fill-opacity="1" fill-rule="nonzero"/><path fill="#010101" d="M 12.921875 37.089844 C 12.300781 37.191406 11.523438 36.902344 11.277344 36.261719 C 10.941406 35.226562 12.4375 34.828125 13.121094 35.234375 C 13.832031 35.683594 13.882812 36.921875 12.921875 37.089844 Z M 12.921875 37.089844 " fill-opacity="1" fill-rule="nonzero"/><path fill="#010101" d="M 13.933594 32.867188 C 13.421875 32.496094 12.597656 32.402344 12.089844 32.863281 C 11.332031 33.636719 12.46875 34.660156 13.273438 34.613281 C 14.113281 34.535156 14.707031 33.449219 13.933594 32.867188 Z M 13.933594 32.867188 " fill-opacity="1" fill-rule="nonzero"/><path fill="#010101" d="M 20.5625 26.242188 C 21.027344 26.121094 21.582031 26.109375 21.957031 26.480469 C 22.585938 27.0625 22.464844 28.035156 21.753906 28.457031 C 21.289062 28.75 21.074219 29.246094 20.910156 29.75 C 20.710938 30.230469 20.160156 30.507812 19.625 30.425781 C 19.097656 30.351562 18.667969 29.90625 18.589844 29.386719 C 18.507812 29.019531 18.558594 28.605469 18.375 28.277344 C 18.28125 28.105469 18.167969 27.9375 18.078125 27.75 C 17.710938 27.128906 18.09375 26.246094 18.839844 26.183594 C 19.175781 26.148438 19.492188 26.253906 19.800781 26.3125 C 20.050781 26.355469 20.300781 26.300781 20.5625 26.242188 Z M 21.886719 27.796875 C 22.199219 27.328125 21.839844 26.601562 21.269531 26.550781 C 20.757812 26.5 20.25 26.800781 19.726562 26.695312 C 19.351562 26.636719 18.953125 26.484375 18.632812 26.648438 C 18.191406 26.9375 18.285156 27.375 18.585938 27.859375 C 18.8125 28.195312 18.90625 28.617188 18.921875 28.984375 C 18.941406 29.207031 18.957031 29.40625 19.046875 29.597656 C 19.21875 29.972656 19.695312 30.175781 20.085938 30.027344 C 20.847656 29.78125 20.453125 28.878906 21.523438 28.15625 C 21.699219 28.035156 21.808594 27.925781 21.886719 27.796875 Z M 21.886719 27.796875 " fill-opacity="1" fill-rule="nonzero"/><path fill="#010101" d="M 18.300781 29.195312 C 18.207031 30.21875 17.308594 30.320312 16.515625 29.902344 C 15.757812 29.574219 15.492188 28.613281 16.332031 28.234375 C 17.105469 27.898438 18.386719 28.117188 18.300781 29.195312 Z M 16.238281 29.113281 C 16.421875 29.507812 17.253906 29.886719 17.652344 29.6875 C 17.960938 29.523438 18.019531 28.878906 17.726562 28.675781 C 17.375 28.421875 16.816406 28.46875 16.441406 28.621094 C 16.230469 28.6875 16.152344 28.925781 16.238281 29.113281 Z M 16.238281 29.113281 " fill-opacity="1" fill-rule="nonzero"/><path fill="#010101" d="M 19.261719 24.359375 C 19.304688 23.902344 19.738281 23.59375 20.1875 23.667969 C 20.625 23.738281 21.015625 24.203125 21.222656 24.601562 C 21.585938 25.230469 21.300781 25.832031 20.671875 26.046875 C 19.625 26.394531 19.140625 25.195312 19.261719 24.359375 Z M 20.984375 25.296875 C 21.089844 24.882812 20.5 24.140625 20.085938 24.066406 C 19.335938 23.957031 19.660156 25.355469 20.019531 25.609375 C 20.292969 25.855469 20.871094 25.648438 20.984375 25.296875 Z M 20.984375 25.296875 " fill-opacity="1" fill-rule="nonzero"/><path fill="#010101" d="M 16.304688 27.960938 C 15.378906 27.757812 14.558594 26.566406 15.382812 25.753906 C 15.9375 25.28125 16.953125 25.523438 17.390625 26.089844 C 17.945312 26.878906 17.398438 28.214844 16.304688 27.960938 Z M 15.546875 26.835938 C 15.75 27.261719 16.410156 27.785156 16.925781 27.492188 C 17.332031 27.199219 17.304688 26.445312 16.867188 26.1875 C 16.195312 25.710938 15.125 25.882812 15.546875 26.835938 Z M 15.546875 26.835938 " fill-opacity="1" fill-rule="nonzero"/><path fill="#010101" d="M 16.601562 24.121094 C 16.8125 23.601562 17.375 23.480469 17.796875 23.546875 C 18.214844 23.601562 18.632812 23.882812 18.890625 24.234375 C 19.621094 25.214844 18.5 26.261719 17.5 25.941406 C 16.835938 25.691406 16.300781 24.785156 16.601562 24.121094 Z M 18.699219 25.089844 C 18.839844 24.511719 18.140625 24.03125 17.675781 23.964844 C 17 23.855469 16.730469 24.371094 17.085938 25 C 17.222656 25.234375 17.433594 25.453125 17.675781 25.550781 C 18.023438 25.683594 18.585938 25.488281 18.699219 25.089844 Z M 18.699219 25.089844 " fill-opacity="1" fill-rule="nonzero"/><path fill="#010101" d="M 26.828125 23.730469 C 27.195312 23.457031 27.6875 23.496094 28.054688 23.226562 C 28.652344 22.808594 28.578125 21.761719 27.921875 21.414062 C 27.441406 21.148438 26.84375 21.238281 26.371094 20.941406 C 25.921875 20.652344 25.414062 20.191406 24.84375 20.5625 C 24.261719 20.929688 24.445312 21.558594 24.515625 22.105469 C 24.585938 22.671875 24.226562 23.148438 24.261719 23.707031 C 24.300781 24.464844 25.179688 24.953125 25.835938 24.617188 C 26.023438 24.523438 26.160156 24.378906 26.285156 24.210938 C 26.4375 24.023438 26.625 23.863281 26.828125 23.730469 Z M 26.828125 23.730469 " fill-opacity="1" fill-rule="nonzero"/><path fill="#010101" d="M 23.695312 22.164062 C 23.96875 22.628906 23.617188 23.34375 23.082031 23.441406 C 22.511719 23.535156 21.691406 22.714844 21.667969 22.160156 C 21.675781 21.0625 23.339844 21.535156 23.695312 22.164062 Z M 23.695312 22.164062 " fill-opacity="1" fill-rule="nonzero"/><path fill="#010101" d="M 26.800781 20.28125 C 27.066406 20.75 27.867188 20.777344 28.207031 20.375 C 28.496094 19.980469 28.339844 19.410156 28.175781 18.992188 C 28.03125 18.605469 27.628906 18.265625 27.199219 18.460938 C 26.683594 18.761719 26.527344 19.789062 26.800781 20.28125 Z M 26.800781 20.28125 " fill-opacity="1" fill-rule="nonzero"/><path fill="#010101" d="M 22.535156 20.839844 C 22.167969 20.570312 21.890625 20.113281 21.863281 19.652344 C 21.84375 19.300781 21.96875 18.832031 22.398438 18.683594 C 23.054688 18.460938 23.824219 19.101562 23.988281 19.671875 C 24.179688 20.488281 23.324219 21.40625 22.535156 20.839844 Z M 22.535156 20.839844 " fill-opacity="1" fill-rule="nonzero"/><path fill="#010101" d="M 26.234375 18.570312 C 26.132812 17.9375 25.621094 17.308594 24.933594 17.265625 C 24.328125 17.210938 24 17.921875 24.109375 18.457031 C 24.160156 18.808594 24.328125 19.144531 24.53125 19.332031 C 25.160156 19.882812 26.386719 19.523438 26.234375 18.570312 Z M 26.234375 18.570312 " fill-opacity="1" fill-rule="nonzero"/><path fill="#010101" d="M 35.609375 18.574219 C 36.023438 18.8125 36.421875 19.203125 36.425781 19.726562 C 36.453125 20.578125 35.703125 21.183594 34.882812 20.980469 C 34.300781 20.855469 33.886719 21.058594 33.371094 21.292969 C 32.894531 21.507812 32.289062 21.28125 31.988281 20.863281 C 31.753906 20.546875 31.679688 20.105469 31.8125 19.734375 C 32.023438 19.160156 32.605469 18.851562 32.683594 18.230469 C 32.738281 18 32.808594 17.753906 32.949219 17.542969 C 33.214844 17.085938 33.996094 16.921875 34.429688 17.3125 C 34.941406 17.761719 34.929688 18.214844 35.609375 18.574219 Z M 35.441406 20.609375 C 35.996094 20.5 36.257812 19.726562 35.890625 19.289062 C 35.5625 18.898438 34.996094 18.742188 34.695312 18.296875 C 34.472656 17.992188 34.300781 17.605469 33.957031 17.492188 C 33.441406 17.371094 33.199219 17.765625 33.066406 18.320312 C 32.988281 18.714844 32.757812 19.070312 32.507812 19.347656 C 32.367188 19.519531 32.238281 19.679688 32.164062 19.871094 C 31.949219 20.398438 32.4375 21.054688 32.996094 20.996094 C 33.367188 20.949219 33.78125 20.628906 34.183594 20.589844 C 34.578125 20.5 35.074219 20.6875 35.441406 20.609375 Z M 35.441406 20.609375 " fill-opacity="1" fill-rule="nonzero"/><path fill="#010101" d="M 31.921875 19.058594 C 31.40625 19.511719 30.738281 19.410156 30.394531 18.800781 C 30.15625 18.417969 29.964844 17.84375 30.128906 17.425781 C 30.507812 16.613281 31.347656 16.894531 31.859375 17.4375 C 32.320312 17.886719 32.484375 18.597656 31.921875 19.058594 Z M 30.519531 17.546875 C 30.367188 17.945312 30.699219 18.820312 31.117188 18.949219 C 31.46875 19.046875 31.996094 18.597656 31.871094 18.226562 C 31.804688 17.792969 30.8125 16.867188 30.519531 17.546875 Z M 30.519531 17.546875 " fill-opacity="1" fill-rule="nonzero"/><path fill="#010101" d="M 36.019531 16.320312 C 36.367188 16.035156 36.90625 16.113281 37.164062 16.484375 C 37.421875 16.84375 37.367188 17.449219 37.234375 17.878906 C 37.042969 18.585938 36.421875 18.800781 35.824219 18.511719 C 34.835938 18.019531 35.347656 16.824219 36.019531 16.320312 Z M 36.574219 18.203125 C 36.941406 17.984375 37.050781 17.042969 36.8125 16.699219 C 36.359375 16.09375 35.597656 17.300781 35.671875 17.742188 C 35.679688 18.105469 36.273438 18.371094 36.574219 18.203125 Z M 36.574219 18.203125 " fill-opacity="1" fill-rule="nonzero"/><path fill="#010101" d="M 31.382812 16.777344 C 31.128906 16.363281 31.054688 15.792969 31.21875 15.351562 C 31.375 14.917969 31.765625 14.503906 32.292969 14.566406 C 33.019531 14.617188 33.566406 15.507812 33.472656 16.214844 C 33.324219 17.164062 31.964844 17.730469 31.382812 16.777344 Z M 31.644531 15.441406 C 31.515625 15.78125 31.566406 16.246094 31.757812 16.578125 C 32.097656 17.195312 32.957031 16.78125 33.046875 16.191406 C 33.132812 15.363281 32.074219 14.3125 31.644531 15.441406 Z M 31.644531 15.441406 " fill-opacity="1" fill-rule="nonzero"/><path fill="#010101" d="M 34.308594 14.269531 C 35.128906 13.945312 35.847656 14.808594 35.863281 15.585938 C 35.984375 17.054688 34.296875 17.324219 33.65625 16.191406 C 33.359375 15.539062 33.628906 14.53125 34.308594 14.269531 Z M 35.109375 16.441406 C 35.613281 16.128906 35.460938 15.296875 35.179688 14.917969 C 35.078125 14.773438 34.75 14.476562 34.496094 14.609375 C 34.039062 14.796875 33.859375 15.589844 34.054688 16.042969 C 34.207031 16.382812 34.746094 16.632812 35.109375 16.441406 Z M 35.109375 16.441406 " fill-opacity="1" fill-rule="nonzero"/><path fill="#010101" d="M 41.8125 21.226562 C 41.988281 21.269531 42.164062 21.324219 42.324219 21.40625 C 42.550781 21.542969 42.765625 21.707031 43.039062 21.734375 C 43.777344 21.84375 44.433594 21.078125 44.226562 20.359375 C 44.078125 19.824219 43.589844 19.488281 43.464844 18.929688 C 43.363281 18.410156 43.296875 17.703125 42.652344 17.582031 C 41.972656 17.417969 41.65625 18.03125 41.328125 18.441406 C 40.972656 18.882812 40.386719 18.976562 40.019531 19.394531 C 39.554688 19.902344 39.734375 20.816406 40.367188 21.097656 C 40.820312 21.328125 41.339844 21.066406 41.8125 21.226562 Z M 41.8125 21.226562 " fill-opacity="1" fill-rule="nonzero"/><path fill="#010101" d="M 40.710938 17.902344 C 40.578125 18.433594 39.8125 18.671875 39.371094 18.375 C 38.988281 18.074219 38.984375 17.484375 39.035156 17.039062 C 39.074219 16.628906 39.382812 16.1875 39.847656 16.257812 C 40.4375 16.445312 40.84375 17.351562 40.710938 17.902344 Z M 40.710938 17.902344 " fill-opacity="1" fill-rule="nonzero"/><path fill="#010101" d="M 44.238281 18.761719 C 44.09375 19.285156 44.625 19.867188 45.164062 19.824219 C 45.730469 19.765625 46.316406 18.757812 46.191406 18.21875 C 46.128906 17.882812 45.765625 17.636719 45.425781 17.757812 C 44.9375 17.890625 44.382812 18.261719 44.238281 18.761719 Z M 44.238281 18.761719 " fill-opacity="1" fill-rule="nonzero"/><path fill="#010101" d="M 40.824219 16.148438 C 40.722656 15.523438 41.011719 14.746094 41.652344 14.503906 C 42.6875 14.164062 43.085938 15.660156 42.679688 16.34375 C 42.230469 17.058594 40.992188 17.105469 40.824219 16.148438 Z M 40.824219 16.148438 " fill-opacity="1" fill-rule="nonzero"/><path fill="#010101" d="M 45.046875 17.15625 C 45.417969 16.644531 45.511719 15.820312 45.050781 15.3125 C 44.277344 14.554688 43.253906 15.691406 43.300781 16.496094 C 43.378906 17.335938 44.464844 17.929688 45.046875 17.15625 Z M 45.046875 17.15625 " fill-opacity="1" fill-rule="nonzero"/><path fill="#010101" d="M 51.671875 23.789062 C 51.792969 24.25 51.804688 24.804688 51.433594 25.179688 C 50.851562 25.808594 49.878906 25.6875 49.457031 24.976562 C 49.164062 24.511719 48.667969 24.300781 48.164062 24.132812 C 47.683594 23.933594 47.40625 23.382812 47.488281 22.847656 C 47.5625 22.320312 48.007812 21.890625 48.527344 21.8125 C 48.894531 21.730469 49.308594 21.78125 49.636719 21.597656 C 49.808594 21.503906 49.976562 21.390625 50.164062 21.300781 C 50.785156 20.933594 51.667969 21.320312 51.730469 22.0625 C 51.765625 22.398438 51.660156 22.714844 51.601562 23.027344 C 51.558594 23.273438 51.613281 23.523438 51.671875 23.789062 Z M 50.117188 25.109375 C 50.585938 25.425781 51.3125 25.0625 51.363281 24.496094 C 51.414062 23.984375 51.113281 23.476562 51.21875 22.949219 C 51.277344 22.574219 51.429688 22.175781 51.265625 21.855469 C 50.976562 21.417969 50.539062 21.507812 50.054688 21.808594 C 49.71875 22.039062 49.296875 22.128906 48.929688 22.144531 C 48.707031 22.164062 48.507812 22.179688 48.316406 22.269531 C 47.941406 22.441406 47.738281 22.917969 47.886719 23.308594 C 48.132812 24.070312 49.035156 23.679688 49.757812 24.75 C 49.878906 24.925781 49.988281 25.035156 50.117188 25.109375 Z M 50.117188 25.109375 " fill-opacity="1" fill-rule="nonzero"/><path fill="#010101" d="M 48.71875 21.523438 C 47.695312 21.429688 47.589844 20.53125 48.011719 19.738281 C 48.339844 18.980469 49.300781 18.714844 49.679688 19.554688 C 50.015625 20.328125 49.796875 21.613281 48.71875 21.523438 Z M 48.800781 19.460938 C 48.40625 19.644531 48.027344 20.480469 48.226562 20.875 C 48.390625 21.1875 49.035156 21.242188 49.238281 20.949219 C 49.492188 20.597656 49.445312 20.039062 49.292969 19.667969 C 49.226562 19.453125 48.988281 19.375 48.800781 19.460938 Z M 48.800781 19.460938 " fill-opacity="1" fill-rule="nonzero"/><path fill="#010101" d="M 53.554688 22.484375 C 54.011719 22.527344 54.320312 22.960938 54.246094 23.410156 C 54.175781 23.847656 53.710938 24.238281 53.3125 24.445312 C 52.683594 24.808594 52.082031 24.523438 51.867188 23.894531 C 51.519531 22.847656 52.71875 22.363281 53.554688 22.484375 Z M 52.617188 24.207031 C 53.03125 24.3125 53.773438 23.722656 53.847656 23.3125 C 53.957031 22.558594 52.558594 22.882812 52.304688 23.242188 C 52.058594 23.515625 52.265625 24.09375 52.617188 24.207031 Z M 52.617188 24.207031 " fill-opacity="1" fill-rule="nonzero"/><path fill="#010101" d="M 49.953125 19.527344 C 50.15625 18.605469 51.347656 17.78125 52.160156 18.605469 C 52.632812 19.160156 52.390625 20.175781 51.824219 20.613281 C 51.035156 21.171875 49.699219 20.621094 49.953125 19.527344 Z M 51.078125 18.773438 C 50.652344 18.972656 50.128906 19.632812 50.421875 20.148438 C 50.648438 20.480469 51.234375 20.519531 51.542969 20.292969 C 51.746094 20.125 51.886719 19.855469 51.949219 19.589844 C 52.117188 18.84375 51.671875 18.496094 51.078125 18.773438 Z M 51.078125 18.773438 " fill-opacity="1" fill-rule="nonzero"/><path fill="#010101" d="M 53.792969 19.824219 C 54.3125 20.035156 54.433594 20.597656 54.367188 21.019531 C 54.3125 21.4375 54.03125 21.859375 53.679688 22.117188 C 52.699219 22.84375 51.652344 21.722656 51.972656 20.722656 C 52.222656 20.058594 53.128906 19.523438 53.792969 19.824219 Z M 52.824219 21.925781 C 53.402344 22.0625 53.882812 21.367188 53.949219 20.898438 C 54.058594 20.222656 53.542969 19.953125 52.914062 20.308594 C 52.679688 20.445312 52.460938 20.65625 52.363281 20.898438 C 52.230469 21.246094 52.425781 21.808594 52.824219 21.925781 Z M 52.824219 21.925781 " fill-opacity="1" fill-rule="nonzero"/><path fill="#010101" d="M 54.183594 30.050781 C 54.457031 30.417969 54.417969 30.910156 54.6875 31.277344 C 55.105469 31.875 56.152344 31.800781 56.5 31.144531 C 56.765625 30.664062 56.675781 30.066406 56.972656 29.597656 C 57.261719 29.144531 57.722656 28.636719 57.351562 28.066406 C 56.984375 27.484375 56.355469 27.667969 55.808594 27.738281 C 55.242188 27.808594 54.765625 27.449219 54.207031 27.488281 C 53.449219 27.527344 52.960938 28.402344 53.296875 29.058594 C 53.390625 29.246094 53.535156 29.382812 53.703125 29.507812 C 53.890625 29.660156 54.050781 29.847656 54.183594 30.050781 Z M 54.183594 30.050781 " fill-opacity="1" fill-rule="nonzero"/><path fill="#010101" d="M 55.75 26.917969 C 55.285156 27.195312 54.570312 26.839844 54.472656 26.304688 C 54.378906 25.734375 55.199219 24.914062 55.753906 24.894531 C 56.851562 24.898438 56.378906 26.5625 55.75 26.917969 Z M 55.75 26.917969 " fill-opacity="1" fill-rule="nonzero"/><path fill="#010101" d="M 57.632812 30.023438 C 57.164062 30.289062 57.136719 31.09375 57.539062 31.429688 C 57.933594 31.71875 58.503906 31.5625 58.921875 31.398438 C 59.308594 31.253906 59.648438 30.851562 59.453125 30.421875 C 59.152344 29.90625 58.125 29.75 57.632812 30.023438 Z M 57.632812 30.023438 " fill-opacity="1" fill-rule="nonzero"/><path fill="#010101" d="M 57.074219 25.757812 C 57.34375 25.390625 57.800781 25.113281 58.261719 25.085938 C 58.613281 25.066406 59.082031 25.191406 59.230469 25.621094 C 59.453125 26.277344 58.8125 27.050781 58.242188 27.210938 C 57.425781 27.402344 56.507812 26.546875 57.074219 25.757812 Z M 57.074219 25.757812 " fill-opacity="1" fill-rule="nonzero"/><path fill="#010101" d="M 59.34375 29.460938 C 59.976562 29.355469 60.605469 28.847656 60.648438 28.160156 C 60.703125 27.550781 59.992188 27.222656 59.457031 27.332031 C 59.101562 27.382812 58.769531 27.550781 58.582031 27.757812 C 58.03125 28.382812 58.390625 29.609375 59.34375 29.460938 Z M 59.34375 29.460938 " fill-opacity="1" fill-rule="nonzero"/><path fill="#010101" d="M 59.339844 38.832031 C 59.101562 39.25 58.710938 39.644531 58.1875 39.648438 C 57.335938 39.675781 56.730469 38.925781 56.933594 38.105469 C 57.054688 37.523438 56.855469 37.109375 56.621094 36.59375 C 56.40625 36.117188 56.632812 35.515625 57.050781 35.210938 C 57.367188 34.980469 57.808594 34.902344 58.179688 35.035156 C 58.753906 35.246094 59.0625 35.828125 59.683594 35.90625 C 59.914062 35.964844 60.160156 36.03125 60.371094 36.171875 C 60.828125 36.4375 60.992188 37.21875 60.601562 37.652344 C 60.152344 38.164062 59.699219 38.15625 59.339844 38.832031 Z M 57.304688 38.664062 C 57.414062 39.21875 58.1875 39.480469 58.625 39.113281 C 59.015625 38.785156 59.171875 38.21875 59.617188 37.917969 C 59.921875 37.699219 60.308594 37.523438 60.421875 37.179688 C 60.542969 36.664062 60.148438 36.421875 59.59375 36.289062 C 59.199219 36.214844 58.84375 35.980469 58.566406 35.734375 C 58.394531 35.589844 58.234375 35.460938 58.042969 35.386719 C 57.515625 35.171875 56.859375 35.660156 56.917969 36.21875 C 56.964844 36.589844 57.285156 37.007812 57.324219 37.410156 C 57.414062 37.804688 57.226562 38.296875 57.304688 38.664062 Z M 57.304688 38.664062 " fill-opacity="1" fill-rule="nonzero"/><path fill="#010101" d="M 58.855469 35.144531 C 58.402344 34.628906 58.503906 33.960938 59.113281 33.617188 C 59.496094 33.378906 60.070312 33.1875 60.488281 33.351562 C 61.300781 33.734375 61.019531 34.574219 60.476562 35.082031 C 60.027344 35.542969 59.316406 35.707031 58.855469 35.144531 Z M 60.367188 33.746094 C 59.96875 33.589844 59.09375 33.925781 58.964844 34.339844 C 58.867188 34.691406 59.316406 35.21875 59.6875 35.09375 C 60.121094 35.027344 61.046875 34.035156 60.367188 33.746094 Z M 60.367188 33.746094 " fill-opacity="1" fill-rule="nonzero"/><path fill="#010101" d="M 61.59375 39.242188 C 61.878906 39.589844 61.800781 40.128906 61.429688 40.386719 C 61.070312 40.644531 60.464844 40.59375 60.035156 40.457031 C 59.328125 40.265625 59.113281 39.644531 59.402344 39.046875 C 59.894531 38.058594 61.089844 38.570312 61.59375 39.242188 Z M 59.710938 39.796875 C 59.929688 40.167969 60.871094 40.273438 61.214844 40.035156 C 61.820312 39.582031 60.613281 38.824219 60.171875 38.894531 C 59.808594 38.90625 59.542969 39.496094 59.710938 39.796875 Z M 59.710938 39.796875 " fill-opacity="1" fill-rule="nonzero"/><g clip-path="url(#fecb5956bf)"><path fill="#010101" d="M 61.136719 34.605469 C 61.550781 34.351562 62.121094 34.277344 62.5625 34.441406 C 62.996094 34.597656 63.410156 34.992188 63.347656 35.515625 C 63.296875 36.242188 62.40625 36.789062 61.699219 36.695312 C 60.75 36.546875 60.183594 35.1875 61.136719 34.605469 Z M 62.472656 34.867188 C 62.132812 34.738281 61.667969 34.789062 61.335938 34.980469 C 60.71875 35.324219 61.132812 36.179688 61.722656 36.269531 C 62.550781 36.355469 63.601562 35.296875 62.472656 34.867188 Z M 62.472656 34.867188 " fill-opacity="1" fill-rule="nonzero"/></g><g clip-path="url(#84c735c70f)"><path fill="#010101" d="M 63.644531 37.53125 C 63.96875 38.355469 63.105469 39.070312 62.328125 39.089844 C 60.859375 39.207031 60.589844 37.519531 61.722656 36.878906 C 62.375 36.585938 63.382812 36.851562 63.644531 37.53125 Z M 61.472656 38.332031 C 61.785156 38.835938 62.617188 38.683594 62.996094 38.402344 C 63.140625 38.300781 63.4375 37.972656 63.304688 37.71875 C 63.117188 37.261719 62.324219 37.082031 61.871094 37.28125 C 61.53125 37.429688 61.28125 37.96875 61.472656 38.332031 Z M 61.472656 38.332031 " fill-opacity="1" fill-rule="nonzero"/></g><path fill="#f4ab64" d="M 50.75 41.242188 C 51.179688 38.90625 50.859375 36.441406 49.871094 34.300781 C 48.878906 32.160156 47.203125 30.324219 45.164062 29.132812 C 45.441406 27.402344 45.121094 25.890625 44.453125 24.570312 C 44.195312 24.09375 43.871094 23.597656 43.378906 23.382812 C 42.949219 23.210938 42.453125 23.253906 42.023438 23.445312 C 41.59375 23.640625 41.230469 23.964844 40.90625 24.289062 C 39.960938 25.261719 39.253906 26.429688 38.78125 27.683594 C 36.070312 27.316406 33.492188 27.988281 31.472656 29.457031 C 30.117188 27.988281 28.398438 27.121094 26.550781 26.734375 C 25.839844 26.582031 24.9375 26.582031 24.550781 27.1875 C 24.359375 27.488281 24.335938 27.878906 24.335938 28.246094 C 24.335938 30.386719 24.703125 32.527344 25.582031 34.496094 C 24.617188 36.746094 23.949219 39.1875 24.078125 41.652344 C 24.207031 44.117188 25.21875 46.582031 27.175781 48.203125 C 31.40625 48.441406 35.683594 48.699219 39.855469 47.902344 C 44.066406 47.121094 49.890625 45.867188 50.75 41.242188 Z M 50.75 41.242188 " fill-opacity="1" fill-rule="nonzero"/><g clip-path="url(#df81caea54)"><path fill="#f2e9e1" d="M 50.535156 35.488281 C 47.03125 35.359375 43.507812 37.003906 41.359375 39.792969 C 40.5 39.273438 39.339844 39.210938 38.265625 39.535156 C 37.1875 39.859375 36.265625 40.570312 35.640625 41.5 C 31.902344 40.160156 27.625 40.59375 24.292969 42.796875 C 24.378906 44.355469 25.023438 45.847656 25.992188 47.058594 C 26.960938 48.269531 28.207031 49.21875 29.558594 50 C 32.761719 51.792969 36.585938 52.507812 40.175781 51.816406 C 43.765625 51.101562 47.097656 48.960938 49.074219 45.847656 C 51.050781 42.710938 51.566406 38.667969 50.535156 35.488281 Z M 50.535156 35.488281 " fill-opacity="1" fill-rule="nonzero"/></g><path fill="#4d1339" d="M 38.929688 40.203125 C 38.566406 40.441406 38.136719 40.484375 37.726562 40.613281 C 37.316406 40.746094 36.910156 40.980469 36.78125 41.394531 C 36.695312 41.675781 36.78125 41.976562 36.953125 42.214844 C 37.125 42.453125 37.382812 42.605469 37.640625 42.710938 C 38.199219 42.929688 38.84375 42.929688 39.382812 42.648438 C 39.917969 42.367188 40.285156 41.804688 40.285156 41.199219 C 40.285156 40.832031 40.132812 40.464844 39.855469 40.246094 C 39.574219 40.03125 39.125 40.074219 38.929688 40.203125 Z M 38.929688 40.203125 " fill-opacity="1" fill-rule="nonzero"/><path fill="#4d1339" d="M 32.847656 37.804688 C 32.613281 38.105469 32.675781 38.605469 32.976562 38.839844 C 33.277344 39.078125 33.773438 39.015625 34.007812 38.710938 C 34.246094 38.410156 34.179688 37.910156 33.878906 37.675781 C 33.601562 37.4375 33.085938 37.480469 32.847656 37.804688 Z M 32.847656 37.804688 " fill-opacity="1" fill-rule="nonzero"/><path fill="#4d1339" d="M 41.445312 34.839844 C 41.015625 34.992188 40.542969 35.210938 40.476562 35.640625 C 40.414062 35.964844 40.628906 36.289062 40.929688 36.421875 C 41.230469 36.527344 41.59375 36.441406 41.808594 36.226562 C 42.046875 36.007812 42.132812 35.664062 42.089844 35.339844 C 42.066406 35.1875 42.023438 35.035156 41.917969 34.929688 C 41.808594 34.820312 41.636719 34.777344 41.445312 34.839844 Z M 41.445312 34.839844 " fill-opacity="1" fill-rule="nonzero"/><path fill="#f2e9e1" d="M 41.164062 27.402344 C 41.144531 27.488281 41.144531 27.554688 41.1875 27.621094 C 41.273438 27.726562 41.445312 27.707031 41.574219 27.683594 C 41.9375 27.621094 42.347656 27.664062 42.691406 27.835938 C 42.839844 27.921875 43.035156 28.007812 43.183594 27.945312 C 43.335938 27.878906 43.378906 27.707031 43.421875 27.535156 C 43.527344 26.972656 43.550781 26.410156 43.527344 25.847656 C 43.507812 25.585938 43.441406 25.285156 43.226562 25.199219 C 43.035156 25.113281 42.820312 25.199219 42.648438 25.304688 C 42.132812 25.585938 41.230469 27.101562 41.164062 27.402344 Z M 41.164062 27.402344 " fill-opacity="1" fill-rule="nonzero"/><path fill="#f2e9e1" d="M 26.960938 29.394531 C 26.746094 29.285156 26.488281 29.21875 26.316406 29.371094 C 26.097656 29.523438 26.097656 29.824219 26.121094 30.085938 C 26.140625 30.496094 26.1875 30.90625 26.207031 31.339844 C 26.230469 31.535156 26.230469 31.726562 26.316406 31.902344 C 26.402344 32.074219 26.550781 32.203125 26.746094 32.203125 C 27.023438 32.203125 27.195312 31.945312 27.367188 31.726562 C 27.5625 31.511719 27.820312 31.339844 28.097656 31.253906 C 28.25 31.1875 28.441406 31.164062 28.527344 31.015625 C 28.699219 30.796875 28.550781 30.453125 28.335938 30.28125 C 28.140625 30.105469 27.152344 29.5 26.960938 29.394531 Z M 26.960938 29.394531 " fill-opacity="1" fill-rule="nonzero"/><path fill="#f2e9e1" d="M 38.671875 34.34375 C 38.757812 34 38.824219 33.675781 39.015625 33.371094 C 39.1875 33.070312 39.488281 32.832031 39.832031 32.808594 C 40.175781 32.789062 40.542969 33.023438 40.5625 33.371094 C 40.585938 33.628906 40.414062 33.890625 40.21875 34.0625 C 39.984375 34.300781 39.683594 34.496094 39.359375 34.605469 C 39.1875 34.667969 38.972656 34.710938 38.824219 34.625 C 38.671875 34.582031 38.585938 34.300781 38.671875 34.34375 Z M 38.671875 34.34375 " fill-opacity="1" fill-rule="nonzero"/><path fill="#f2e9e1" d="M 34.375 35.726562 C 33.902344 35.359375 33.300781 35.164062 32.699219 35.1875 C 32.546875 35.1875 32.375 35.210938 32.226562 35.296875 C 32.074219 35.359375 31.964844 35.488281 31.921875 35.664062 C 31.859375 35.945312 32.117188 36.203125 32.355469 36.332031 C 32.804688 36.59375 33.34375 36.636719 33.835938 36.507812 C 34.007812 36.464844 34.160156 36.375 34.265625 36.246094 C 34.417969 36.09375 34.417969 35.878906 34.375 35.726562 Z M 34.375 35.726562 " fill-opacity="1" fill-rule="nonzero"/><g clip-path="url(#ec1e664778)"><path fill="#c35547" d="M 42.734375 58.582031 C 40.734375 57.046875 38.285156 56.140625 35.792969 55.988281 C 34.4375 55.46875 32.785156 55.144531 31.429688 54.257812 C 30.074219 53.371094 29.042969 51.75 29.324219 49.976562 C 32.460938 52.03125 36.414062 52.808594 40.089844 52.09375 C 43.765625 51.359375 47.117188 49.132812 49.179688 45.957031 C 50.042969 47.425781 49.78125 49.351562 48.964844 50.863281 C 48.148438 52.375 46.882812 53.566406 45.65625 54.753906 C 44.433594 55.921875 43.226562 57.199219 42.734375 58.582031 Z M 42.734375 58.582031 " fill-opacity="1" fill-rule="nonzero"/></g><path fill="#f0bcb5" d="M 49.050781 48.183594 C 48.988281 47.816406 48.921875 47.46875 48.878906 47.101562 C 48.859375 46.992188 48.707031 46.929688 48.621094 46.949219 C 48.492188 46.992188 48.449219 47.101562 48.472656 47.210938 C 48.515625 47.597656 48.578125 47.988281 48.664062 48.375 C 48.6875 48.464844 48.707031 48.550781 48.707031 48.65625 C 48.320312 49.15625 47.890625 49.609375 47.417969 50.019531 C 47.355469 49.609375 47.289062 49.199219 47.226562 48.765625 C 47.183594 48.484375 46.753906 48.59375 46.796875 48.875 C 46.882812 49.351562 46.945312 49.847656 47.03125 50.324219 C 46.472656 50.753906 45.894531 51.121094 45.269531 51.425781 C 45.183594 51.058594 45.121094 50.691406 45.035156 50.324219 C 44.96875 50.0625 44.5625 50.171875 44.625 50.429688 C 44.710938 50.820312 44.796875 51.230469 44.863281 51.621094 C 44.21875 51.921875 43.570312 52.160156 42.90625 52.355469 C 42.820312 51.988281 42.753906 51.621094 42.667969 51.253906 C 42.605469 50.972656 42.175781 51.101562 42.238281 51.359375 C 42.324219 51.726562 42.410156 52.09375 42.496094 52.441406 C 42.453125 52.441406 42.433594 52.464844 42.390625 52.464844 C 41.636719 52.65625 40.886719 52.808594 40.113281 52.917969 C 40.046875 52.613281 39.984375 52.3125 39.917969 52.007812 C 39.855469 51.726562 39.445312 51.859375 39.511719 52.117188 C 39.574219 52.398438 39.617188 52.679688 39.683594 52.960938 C 39.082031 53.023438 38.480469 53.089844 37.855469 53.132812 C 37.746094 53.132812 37.617188 53.15625 37.511719 53.15625 C 37.46875 52.917969 37.425781 52.65625 37.382812 52.421875 C 37.339844 52.160156 36.929688 52.269531 36.996094 52.527344 C 37.039062 52.746094 37.082031 52.960938 37.101562 53.175781 C 36.351562 53.21875 35.597656 53.242188 34.867188 53.199219 C 34.804688 52.832031 34.761719 52.464844 34.71875 52.09375 C 34.695312 51.835938 34.289062 51.835938 34.308594 52.09375 C 34.351562 52.464844 34.394531 52.808594 34.4375 53.175781 C 34.222656 53.15625 34.03125 53.15625 33.816406 53.113281 C 33.300781 53.046875 32.761719 52.960938 32.269531 52.808594 C 32.203125 52.375 32.160156 51.945312 32.183594 51.488281 C 32.183594 51.253906 31.816406 51.253906 31.792969 51.488281 C 31.792969 51.902344 31.816406 52.289062 31.859375 52.699219 C 31.363281 52.550781 30.890625 52.355469 30.441406 52.09375 C 30.441406 52.007812 30.417969 51.921875 30.417969 51.835938 C 30.398438 51.46875 30.355469 51.101562 30.289062 50.734375 C 30.269531 50.625 30.140625 50.558594 30.054688 50.605469 C 29.945312 50.625 29.902344 50.734375 29.925781 50.839844 C 29.96875 51.1875 30.011719 51.535156 30.03125 51.878906 C 29.902344 51.792969 29.773438 51.726562 29.667969 51.640625 C 29.453125 51.488281 29.238281 51.859375 29.453125 52.007812 C 29.644531 52.160156 29.859375 52.289062 30.054688 52.398438 C 30.054688 52.59375 30.074219 52.808594 30.097656 53.003906 C 30.117188 53.089844 30.203125 53.15625 30.289062 53.132812 C 30.375 53.113281 30.441406 53.046875 30.441406 52.960938 C 30.460938 52.851562 30.460938 52.746094 30.460938 52.613281 C 30.933594 52.851562 31.429688 53.023438 31.921875 53.175781 C 32.03125 53.738281 32.183594 54.28125 32.417969 54.796875 C 32.460938 54.90625 32.570312 54.90625 32.65625 54.863281 C 32.632812 54.949219 32.675781 55.058594 32.785156 55.101562 C 33.492188 55.382812 34.246094 55.46875 35.019531 55.488281 C 35.0625 55.597656 35.105469 55.707031 35.148438 55.816406 C 35.253906 56.007812 35.554688 55.878906 35.511719 55.664062 C 35.492188 55.597656 35.492188 55.554688 35.46875 55.488281 C 35.621094 55.488281 35.75 55.488281 35.898438 55.488281 C 36.414062 55.46875 36.910156 55.445312 37.425781 55.425781 C 37.445312 55.640625 37.46875 55.859375 37.511719 56.050781 C 37.554688 56.269531 37.898438 56.226562 37.898438 56.007812 C 37.898438 55.816406 37.875 55.597656 37.832031 55.402344 C 38.308594 55.382812 38.78125 55.339844 39.253906 55.316406 C 39.511719 55.296875 39.789062 55.273438 40.046875 55.253906 C 40.089844 55.46875 40.113281 55.683594 40.15625 55.878906 C 40.199219 56.140625 40.21875 56.398438 40.242188 56.679688 C 40.175781 56.679688 40.113281 56.679688 40.046875 56.679688 C 39.726562 56.679688 39.726562 57.15625 40.046875 57.175781 C 40.15625 57.175781 40.242188 57.175781 40.347656 57.175781 C 40.414062 57.351562 40.648438 57.328125 40.714844 57.15625 C 41.53125 57.113281 42.324219 56.960938 43.078125 56.699219 C 43.078125 56.832031 43.097656 56.960938 43.097656 57.089844 C 43.121094 57.394531 43.570312 57.371094 43.550781 57.089844 C 43.527344 56.917969 43.507812 56.722656 43.507812 56.550781 C 43.785156 56.441406 44.066406 56.332031 44.347656 56.183594 C 44.625 56.050781 44.390625 55.640625 44.109375 55.769531 C 43.894531 55.878906 43.679688 55.964844 43.464844 56.050781 C 43.421875 55.578125 43.355469 55.121094 43.292969 54.648438 C 43.960938 54.472656 44.625 54.234375 45.269531 53.957031 C 45.269531 53.957031 45.292969 53.957031 45.292969 53.933594 C 45.3125 54.105469 45.355469 54.300781 45.378906 54.472656 C 45.421875 54.753906 45.851562 54.625 45.808594 54.367188 C 45.785156 54.148438 45.742188 53.957031 45.699219 53.738281 C 46.539062 53.328125 47.332031 52.808594 48.019531 52.160156 C 48.234375 51.964844 47.933594 51.664062 47.71875 51.816406 C 47.675781 51.359375 47.589844 50.90625 47.503906 50.453125 C 47.976562 50.042969 48.429688 49.609375 48.816406 49.113281 C 48.835938 49.21875 48.878906 49.328125 48.921875 49.4375 C 49.007812 49.609375 49.289062 49.523438 49.289062 49.328125 C 49.289062 49.132812 49.222656 48.9375 49.179688 48.746094 C 49.179688 48.699219 49.160156 48.65625 49.160156 48.636719 C 49.222656 48.527344 49.308594 48.421875 49.375 48.3125 C 49.503906 48.226562 49.203125 48.03125 49.050781 48.183594 Z M 32.914062 54.796875 C 32.871094 54.777344 32.828125 54.777344 32.785156 54.796875 C 32.785156 54.777344 32.785156 54.753906 32.785156 54.734375 C 32.613281 54.28125 32.460938 53.824219 32.375 53.371094 C 33.085938 53.542969 33.816406 53.628906 34.546875 53.695312 C 34.566406 53.824219 34.589844 53.957031 34.632812 54.085938 C 34.695312 54.386719 34.78125 54.691406 34.867188 54.992188 C 34.890625 55.035156 34.890625 55.101562 34.910156 55.144531 C 34.203125 55.121094 33.535156 55.035156 32.914062 54.796875 Z M 36.351562 55.121094 C 36.007812 55.144531 35.664062 55.144531 35.320312 55.144531 C 35.277344 55.035156 35.253906 54.949219 35.210938 54.839844 C 35.125 54.558594 35.0625 54.28125 34.976562 54 C 34.953125 53.890625 34.933594 53.804688 34.910156 53.695312 C 35.664062 53.71875 36.414062 53.71875 37.144531 53.675781 C 37.1875 53.910156 37.210938 54.128906 37.253906 54.367188 C 37.296875 54.605469 37.316406 54.839844 37.359375 55.058594 C 37.039062 55.101562 36.695312 55.101562 36.351562 55.121094 Z M 37.769531 55.058594 C 37.726562 54.796875 37.703125 54.558594 37.660156 54.300781 C 37.640625 54.085938 37.597656 53.867188 37.554688 53.652344 C 38.285156 53.609375 39.015625 53.542969 39.726562 53.457031 C 39.8125 53.867188 39.875 54.28125 39.941406 54.691406 C 39.941406 54.753906 39.960938 54.796875 39.960938 54.863281 C 39.253906 54.949219 38.523438 55.015625 37.769531 55.058594 Z M 40.390625 54.625 C 40.328125 54.214844 40.242188 53.804688 40.175781 53.394531 C 40.972656 53.285156 41.789062 53.132812 42.5625 52.9375 C 42.667969 53.414062 42.753906 53.890625 42.820312 54.367188 C 42.023438 54.558594 41.230469 54.710938 40.414062 54.820312 C 40.414062 54.753906 40.414062 54.691406 40.390625 54.625 Z M 40.714844 56.746094 C 40.691406 56.484375 40.628906 56.203125 40.605469 55.945312 C 40.585938 55.726562 40.542969 55.488281 40.5 55.273438 C 41.316406 55.164062 42.109375 55.035156 42.90625 54.839844 C 42.96875 55.316406 43.035156 55.816406 43.054688 56.289062 C 42.304688 56.550781 41.507812 56.699219 40.714844 56.746094 Z M 43.226562 54.257812 C 43.164062 53.78125 43.078125 53.304688 42.992188 52.832031 C 43.65625 52.636719 44.324219 52.421875 44.949219 52.117188 C 45.035156 52.59375 45.121094 53.046875 45.207031 53.523438 C 44.5625 53.824219 43.894531 54.085938 43.226562 54.257812 Z M 45.613281 53.328125 C 45.527344 52.851562 45.441406 52.398438 45.355469 51.945312 C 45.613281 51.816406 45.871094 51.683594 46.128906 51.535156 C 46.472656 51.339844 46.796875 51.121094 47.097656 50.886719 C 47.117188 51.035156 47.140625 51.1875 47.160156 51.359375 C 47.203125 51.640625 47.226562 51.921875 47.3125 52.203125 C 47.3125 52.226562 47.332031 52.226562 47.332031 52.246094 C 46.796875 52.65625 46.214844 53.023438 45.613281 53.328125 Z M 45.613281 53.328125 " fill-opacity="1" fill-rule="nonzero"/><path fill="#f2e9e1" d="M 26.851562 35.382812 C 26.703125 35.296875 26.53125 35.359375 26.445312 35.488281 C 26.25 35.816406 26.054688 36.140625 25.90625 36.484375 C 25.734375 36.851562 25.582031 37.242188 25.539062 37.628906 C 25.519531 37.890625 25.925781 38 26.054688 37.761719 C 26.140625 37.585938 26.207031 37.414062 26.273438 37.21875 C 26.335938 37.046875 26.402344 36.875 26.464844 36.746094 C 26.617188 36.421875 26.765625 36.074219 26.960938 35.769531 C 27.046875 35.640625 27.003906 35.445312 26.851562 35.382812 Z M 26.851562 35.382812 " fill-opacity="1" fill-rule="nonzero"/><path fill="#f2e9e1" d="M 25.820312 38.929688 C 25.796875 38.886719 25.777344 38.839844 25.753906 38.820312 C 25.734375 38.777344 25.691406 38.753906 25.648438 38.753906 C 25.605469 38.734375 25.5625 38.734375 25.519531 38.734375 C 25.496094 38.734375 25.453125 38.734375 25.433594 38.753906 C 25.367188 38.777344 25.324219 38.796875 25.28125 38.839844 C 25.261719 38.863281 25.238281 38.886719 25.21875 38.90625 C 25.195312 38.972656 25.175781 39.015625 25.175781 39.078125 L 25.175781 39.164062 C 25.175781 39.210938 25.175781 39.230469 25.195312 39.273438 C 25.195312 39.296875 25.195312 39.316406 25.195312 39.316406 C 25.195312 39.382812 25.238281 39.425781 25.28125 39.46875 C 25.28125 39.46875 25.28125 39.46875 25.304688 39.488281 C 25.324219 39.511719 25.367188 39.535156 25.410156 39.554688 C 25.453125 39.578125 25.496094 39.578125 25.539062 39.578125 C 25.5625 39.578125 25.605469 39.578125 25.625 39.554688 C 25.667969 39.535156 25.734375 39.511719 25.753906 39.46875 C 25.796875 39.425781 25.839844 39.359375 25.863281 39.296875 C 25.863281 39.273438 25.863281 39.253906 25.863281 39.253906 C 25.863281 39.210938 25.882812 39.164062 25.882812 39.144531 L 25.882812 39.058594 C 25.839844 39.015625 25.839844 38.972656 25.820312 38.929688 Z M 25.820312 38.929688 " fill-opacity="1" fill-rule="nonzero"/><path fill="#f2e9e1" d="M 41.703125 35.46875 C 41.507812 35.46875 41.507812 35.769531 41.703125 35.769531 C 41.894531 35.769531 41.894531 35.46875 41.703125 35.46875 Z M 41.703125 35.46875 " fill-opacity="1" fill-rule="nonzero"/><path fill="#f2e9e1" d="M 33.535156 38.367188 C 33.34375 38.367188 33.34375 38.667969 33.535156 38.667969 C 33.730469 38.667969 33.730469 38.367188 33.535156 38.367188 Z M 33.535156 38.367188 " fill-opacity="1" fill-rule="nonzero"/><path fill="#f2e9e1" d="M 37.875 41.089844 C 37.832031 41.046875 37.746094 41.003906 37.683594 41.003906 C 37.660156 41.003906 37.640625 41.003906 37.617188 41.003906 C 37.574219 41.023438 37.53125 41.046875 37.488281 41.070312 C 37.382812 41.15625 37.316406 41.285156 37.273438 41.394531 C 37.253906 41.457031 37.253906 41.523438 37.230469 41.585938 C 37.230469 41.628906 37.230469 41.675781 37.253906 41.71875 C 37.273438 41.78125 37.296875 41.824219 37.339844 41.867188 C 37.445312 41.976562 37.640625 41.957031 37.726562 41.824219 C 37.726562 41.824219 37.726562 41.804688 37.746094 41.804688 C 37.769531 41.761719 37.769531 41.71875 37.789062 41.652344 C 37.789062 41.675781 37.789062 41.695312 37.789062 41.71875 C 37.789062 41.675781 37.8125 41.609375 37.8125 41.566406 C 37.8125 41.585938 37.8125 41.609375 37.8125 41.628906 C 37.8125 41.585938 37.832031 41.566406 37.832031 41.523438 C 37.832031 41.5 37.855469 41.480469 37.855469 41.480469 C 37.875 41.457031 37.875 41.4375 37.898438 41.4375 C 37.917969 41.414062 37.941406 41.371094 37.960938 41.351562 C 37.984375 41.304688 37.984375 41.285156 37.984375 41.242188 C 37.960938 41.21875 37.917969 41.132812 37.875 41.089844 Z M 37.875 41.089844 " fill-opacity="1" fill-rule="nonzero"/><g clip-path="url(#62251e60b0)"><path fill="#4d1339" d="M 25.582031 34.949219 C 25.476562 34.949219 25.390625 34.90625 25.347656 34.796875 C 24.335938 32.980469 23.800781 30.085938 24.035156 27.769531 C 24.078125 27.382812 24.144531 26.992188 24.421875 26.710938 C 24.851562 26.257812 25.496094 26.324219 25.96875 26.386719 C 27.925781 26.710938 29.859375 27.664062 31.386719 29.089844 C 33.449219 27.769531 36.027344 27.121094 38.566406 27.273438 C 39.253906 25.824219 40.285156 24.550781 41.550781 23.578125 C 41.960938 23.253906 42.605469 22.839844 43.269531 22.972656 C 43.808594 23.078125 44.261719 23.488281 44.667969 24.226562 C 45.398438 25.566406 45.785156 27.425781 45.65625 29.089844 C 45.636719 29.242188 45.507812 29.351562 45.355469 29.351562 C 45.207031 29.328125 45.078125 29.199219 45.097656 29.046875 C 45.207031 27.488281 44.863281 25.761719 44.175781 24.507812 C 43.851562 23.921875 43.527344 23.597656 43.164062 23.535156 C 42.710938 23.445312 42.21875 23.769531 41.875 24.03125 C 40.628906 24.980469 39.617188 26.257812 38.972656 27.683594 C 38.929688 27.792969 38.824219 27.859375 38.695312 27.859375 C 36.136719 27.664062 33.515625 28.332031 31.492188 29.695312 C 31.386719 29.761719 31.234375 29.761719 31.148438 29.675781 C 29.667969 28.203125 27.796875 27.253906 25.863281 26.929688 C 25.324219 26.839844 25.003906 26.886719 24.808594 27.078125 C 24.660156 27.253906 24.59375 27.535156 24.574219 27.816406 C 24.335938 30.019531 24.851562 32.789062 25.820312 34.515625 C 25.90625 34.648438 25.839844 34.820312 25.710938 34.90625 C 25.667969 34.929688 25.625 34.949219 25.582031 34.949219 Z M 25.582031 34.949219 " fill-opacity="1" fill-rule="nonzero"/></g><g clip-path="url(#e57824258c)"><path fill="#4d1339" d="M 37.210938 52.421875 C 35.726562 52.421875 34.246094 52.226562 32.785156 51.792969 C 28.59375 50.582031 25.324219 47.683594 24.25 44.203125 C 23.261719 41.003906 23.929688 37.199219 26.292969 32.59375 C 26.359375 32.464844 26.53125 32.398438 26.679688 32.464844 C 26.808594 32.527344 26.875 32.699219 26.808594 32.851562 C 24.507812 37.328125 23.863281 40.980469 24.808594 44.03125 C 25.839844 47.316406 28.957031 50.085938 32.957031 51.253906 C 37.984375 52.722656 43.507812 51.488281 46.988281 48.117188 C 49.738281 45.457031 51.160156 41.5 50.707031 37.78125 C 50.234375 34 47.761719 30.496094 44.410156 28.894531 C 44.28125 28.832031 44.21875 28.65625 44.28125 28.527344 C 44.347656 28.398438 44.519531 28.332031 44.648438 28.398438 C 48.171875 30.085938 50.773438 33.738281 51.265625 37.71875 C 51.761719 41.609375 50.257812 45.761719 47.375 48.527344 C 44.753906 51.058594 41.035156 52.421875 37.210938 52.421875 Z M 37.210938 52.421875 " fill-opacity="1" fill-rule="nonzero"/></g><g clip-path="url(#aa7b00edb0)"><path fill="#4d1339" d="M 42.734375 58.820312 C 42.667969 58.820312 42.605469 58.796875 42.539062 58.753906 C 41.164062 57.542969 39.273438 57.023438 37.445312 56.636719 C 37.210938 56.59375 36.996094 56.527344 36.757812 56.484375 C 35.125 56.140625 33.40625 55.792969 31.921875 54.949219 C 29.96875 53.847656 28.742188 51.945312 28.808594 50.128906 C 28.808594 49.976562 28.9375 49.847656 29.085938 49.867188 C 29.238281 49.867188 29.367188 50 29.34375 50.148438 C 29.28125 52.117188 30.828125 53.695312 32.183594 54.472656 C 33.601562 55.273438 35.253906 55.621094 36.867188 55.945312 C 37.101562 55.988281 37.339844 56.03125 37.554688 56.09375 C 39.339844 56.484375 41.207031 57.003906 42.648438 58.128906 C 43.421875 56.832031 44.476562 55.707031 45.507812 54.625 L 45.636719 54.496094 C 46.839844 53.21875 47.914062 52.03125 48.601562 50.625 C 49.394531 49.023438 49.523438 47.359375 48.988281 46.042969 C 48.921875 45.890625 48.988281 45.738281 49.136719 45.675781 C 49.289062 45.609375 49.4375 45.675781 49.503906 45.824219 C 50.105469 47.296875 49.957031 49.132812 49.09375 50.886719 C 48.363281 52.355469 47.269531 53.566406 46.023438 54.886719 L 45.894531 55.015625 C 44.820312 56.160156 43.699219 57.328125 42.949219 58.710938 C 42.90625 58.777344 42.839844 58.839844 42.753906 58.839844 C 42.753906 58.820312 42.753906 58.820312 42.734375 58.820312 Z M 42.734375 58.820312 " fill-opacity="1" fill-rule="nonzero"/></g><path fill="#4d1339" d="M 38.457031 43.101562 C 38.050781 43.101562 37.617188 43.058594 37.210938 42.839844 C 36.867188 42.648438 36.585938 42.324219 36.480469 41.957031 C 36.394531 41.652344 36.414062 41.351562 36.566406 41.113281 C 36.757812 40.765625 37.101562 40.59375 37.445312 40.441406 C 37.984375 40.203125 38.542969 40.03125 39.125 39.878906 C 39.445312 39.792969 39.769531 39.75 40.070312 39.921875 C 40.519531 40.183594 40.585938 40.746094 40.476562 41.199219 C 40.21875 42.410156 39.703125 43.035156 38.953125 43.078125 C 38.78125 43.078125 38.628906 43.101562 38.457031 43.101562 Z M 39.574219 40.355469 C 39.46875 40.355469 39.339844 40.375 39.230469 40.421875 C 38.695312 40.550781 38.15625 40.722656 37.640625 40.9375 C 37.339844 41.070312 37.125 41.175781 37.039062 41.371094 C 36.953125 41.523438 36.972656 41.675781 37.015625 41.78125 C 37.082031 42 37.253906 42.234375 37.46875 42.34375 C 37.898438 42.558594 38.4375 42.539062 38.910156 42.515625 C 39.382812 42.496094 39.726562 42.019531 39.917969 41.070312 C 39.984375 40.808594 39.941406 40.484375 39.769531 40.398438 C 39.726562 40.375 39.660156 40.355469 39.574219 40.355469 Z M 39.574219 40.355469 " fill-opacity="1" fill-rule="nonzero"/><path fill="#4d1339" d="M 36.542969 45.5 C 36.308594 45.5 36.09375 45.480469 35.878906 45.394531 C 35.148438 45.175781 34.546875 44.59375 34.308594 43.859375 C 34.265625 43.707031 34.332031 43.554688 34.480469 43.511719 C 34.632812 43.46875 34.78125 43.535156 34.824219 43.683594 C 35.019531 44.246094 35.46875 44.699219 36.027344 44.851562 C 36.585938 45.023438 37.210938 44.894531 37.683594 44.550781 C 37.855469 44.421875 38.027344 44.226562 38.179688 44.050781 C 38.4375 43.75 38.714844 43.445312 39.101562 43.273438 C 39.597656 43.035156 40.113281 43.078125 40.628906 43.101562 C 40.972656 43.121094 41.292969 43.144531 41.59375 43.078125 C 42.003906 42.992188 42.390625 42.734375 42.667969 42.34375 C 42.925781 41.957031 43.035156 41.480469 42.949219 41.070312 C 42.925781 40.917969 43.011719 40.765625 43.164062 40.746094 C 43.3125 40.722656 43.464844 40.808594 43.484375 40.960938 C 43.59375 41.523438 43.464844 42.148438 43.121094 42.667969 C 42.777344 43.1875 42.261719 43.535156 41.703125 43.640625 C 41.335938 43.707031 40.949219 43.683594 40.605469 43.664062 C 40.15625 43.640625 39.726562 43.597656 39.359375 43.769531 C 39.082031 43.902344 38.84375 44.160156 38.609375 44.421875 C 38.4375 44.613281 38.242188 44.808594 38.027344 44.980469 C 37.597656 45.328125 37.082031 45.5 36.542969 45.5 Z M 36.542969 45.5 " fill-opacity="1" fill-rule="nonzero"/><path fill="#4d1339" d="M 39.253906 46.0625 C 39.230469 46.0625 39.230469 46.0625 39.253906 46.0625 C 39.082031 46.0625 38.953125 45.933594 38.953125 45.78125 C 38.953125 45.628906 39.082031 45.5 39.230469 45.5 C 39.230469 45.5 39.253906 45.5 39.253906 45.5 C 39.746094 45.5 40.242188 45.304688 40.605469 44.980469 C 40.714844 44.875 40.90625 44.894531 40.992188 45.003906 C 41.101562 45.113281 41.078125 45.304688 40.972656 45.394531 C 40.5 45.804688 39.875 46.0625 39.253906 46.0625 Z M 39.253906 46.0625 " fill-opacity="1" fill-rule="nonzero"/><path fill="#4d1339" d="M 34.460938 38.839844 C 34.332031 38.839844 34.222656 38.753906 34.179688 38.625 C 34.09375 38.234375 33.730469 37.910156 33.320312 37.910156 C 32.933594 37.890625 32.527344 38.171875 32.398438 38.558594 C 32.355469 38.710938 32.203125 38.796875 32.050781 38.734375 C 31.902344 38.691406 31.816406 38.539062 31.878906 38.386719 C 32.074219 37.761719 32.699219 37.328125 33.363281 37.351562 C 34.007812 37.371094 34.589844 37.890625 34.738281 38.515625 C 34.78125 38.667969 34.675781 38.820312 34.523438 38.839844 C 34.503906 38.820312 34.480469 38.839844 34.460938 38.839844 Z M 34.460938 38.839844 " fill-opacity="1" fill-rule="nonzero"/><path fill="#4d1339" d="M 33.40625 39.339844 C 33.085938 39.339844 32.761719 39.164062 32.570312 38.886719 C 32.398438 38.625 32.3125 38.28125 32.355469 37.890625 C 32.375 37.738281 32.503906 37.609375 32.65625 37.628906 C 32.804688 37.652344 32.914062 37.78125 32.914062 37.933594 C 32.890625 38.105469 32.914062 38.367188 33.042969 38.558594 C 33.148438 38.710938 33.34375 38.796875 33.472656 38.777344 C 33.6875 38.734375 33.835938 38.453125 33.945312 38.148438 C 34.007812 38 34.160156 37.933594 34.308594 38 C 34.460938 38.0625 34.523438 38.214844 34.460938 38.367188 C 34.332031 38.648438 34.117188 39.1875 33.601562 39.316406 C 33.535156 39.339844 33.472656 39.339844 33.40625 39.339844 Z M 33.40625 39.339844 " fill-opacity="1" fill-rule="nonzero"/><path fill="#4d1339" d="M 40.457031 36.894531 C 40.347656 36.894531 40.242188 36.832031 40.199219 36.722656 C 39.917969 36.09375 40.132812 35.296875 40.671875 34.863281 C 41.207031 34.429688 42.023438 34.429688 42.5625 34.839844 C 42.691406 34.929688 42.710938 35.101562 42.625 35.230469 C 42.539062 35.359375 42.367188 35.382812 42.238281 35.296875 C 41.894531 35.035156 41.359375 35.035156 41.015625 35.316406 C 40.671875 35.578125 40.542969 36.117188 40.714844 36.507812 C 40.777344 36.65625 40.714844 36.808594 40.5625 36.875 C 40.542969 36.894531 40.5 36.894531 40.457031 36.894531 Z M 40.457031 36.894531 " fill-opacity="1" fill-rule="nonzero"/><path fill="#4d1339" d="M 41.1875 36.699219 C 40.800781 36.699219 40.414062 36.507812 40.175781 36.183594 C 40.089844 36.050781 40.113281 35.878906 40.242188 35.792969 C 40.371094 35.707031 40.542969 35.726562 40.628906 35.859375 C 40.757812 36.050781 41.015625 36.160156 41.25 36.140625 C 41.488281 36.117188 41.703125 35.921875 41.789062 35.707031 C 41.875 35.488281 41.808594 35.210938 41.636719 35.035156 C 41.53125 34.929688 41.53125 34.753906 41.636719 34.648438 C 41.746094 34.539062 41.917969 34.539062 42.023438 34.648438 C 42.324219 34.972656 42.433594 35.46875 42.304688 35.902344 C 42.152344 36.332031 41.765625 36.636719 41.316406 36.699219 C 41.292969 36.699219 41.230469 36.699219 41.1875 36.699219 Z M 41.1875 36.699219 " fill-opacity="1" fill-rule="nonzero"/><path fill="#f2e9e1" d="M 38.953125 34.992188 C 38.824219 34.992188 38.714844 34.949219 38.628906 34.886719 C 38.457031 34.734375 38.457031 34.515625 38.457031 34.453125 C 38.4375 33.609375 39.039062 32.765625 39.832031 32.527344 C 39.875 32.507812 39.917969 32.507812 39.941406 32.527344 C 40.476562 32.59375 40.734375 33.046875 40.714844 33.457031 C 40.691406 33.761719 40.542969 34.0625 40.242188 34.34375 C 39.941406 34.648438 39.574219 34.863281 39.167969 34.972656 C 39.101562 34.992188 39.015625 34.992188 38.953125 34.992188 Z M 39.015625 34.496094 Z M 39.941406 33.089844 C 39.402344 33.285156 38.996094 33.847656 39.015625 34.429688 C 39.015625 34.429688 39.015625 34.429688 39.039062 34.429688 C 39.359375 34.34375 39.640625 34.171875 39.875 33.957031 C 40.003906 33.824219 40.15625 33.628906 40.175781 33.414062 C 40.175781 33.371094 40.175781 33.15625 39.941406 33.089844 Z M 39.941406 33.089844 " fill-opacity="1" fill-rule="nonzero"/><path fill="#f2e9e1" d="M 33.320312 36.875 C 33.0625 36.875 32.804688 36.832031 32.546875 36.722656 C 32.289062 36.636719 32.117188 36.507812 31.988281 36.332031 C 31.816406 36.09375 31.75 35.792969 31.859375 35.554688 C 31.945312 35.339844 32.117188 35.1875 32.355469 35.101562 C 32.546875 35.035156 32.71875 35.015625 32.890625 35.015625 C 33.191406 35.015625 33.578125 35.035156 33.921875 35.1875 C 34.460938 35.425781 34.566406 35.769531 34.566406 36.007812 C 34.566406 36.289062 34.394531 36.59375 34.222656 36.679688 C 33.964844 36.808594 33.644531 36.875 33.320312 36.875 Z M 32.976562 35.578125 C 32.957031 35.578125 32.933594 35.578125 32.914062 35.578125 C 32.761719 35.578125 32.65625 35.578125 32.546875 35.621094 C 32.460938 35.640625 32.398438 35.707031 32.375 35.75 C 32.355469 35.816406 32.375 35.902344 32.441406 35.988281 C 32.503906 36.074219 32.613281 36.140625 32.761719 36.203125 C 33.148438 36.355469 33.601562 36.332031 33.988281 36.160156 C 34.007812 36.140625 34.050781 36.050781 34.050781 35.988281 C 34.03125 35.878906 33.921875 35.792969 33.730469 35.707031 C 33.472656 35.597656 33.191406 35.578125 32.976562 35.578125 Z M 32.976562 35.578125 " fill-opacity="1" fill-rule="nonzero"/></svg>